<?xml version="1.0" standalone="no"?>
<!DOCTYPE svg PUBLIC "-//W3C//DTD SVG 1.1//EN" "http://www.w3.org/Graphics/SVG/1.1/DTD/svg11.dtd" >
<svg xmlns="http://www.w3.org/2000/svg">
<metadata>Generated by IcoMoon</metadata>
<defs>
<font id="icomoon" horiz-adv-x="1024">
<font-face units-per-em="1024" ascent="960" descent="-64" />
<missing-glyph horiz-adv-x="1024" />
<glyph unicode="&#x20;" horiz-adv-x="512" d="" />
<glyph unicode="&#xe900;" glyph-name="ArrowLeft" d="M1008.941 446.495c0 24.95-20.227 45.176-45.176 45.176h-903.529c-24.95 0-45.176-20.226-45.176-45.176s20.226-45.176 45.176-45.176h903.529c24.949 0 45.176 20.226 45.176 45.176zM456.661 841.288c-17.605 17.68-46.209 17.742-63.889 0.137l-364.424-362.857c-8.514-8.478-13.3-19.997-13.301-32.011s4.785-23.535 13.298-32.013l364.423-362.916c17.679-17.607 46.284-17.547 63.889 0.133s17.547 46.279-0.132 63.886l-332.278 330.906 332.275 330.847c17.68 17.604 17.742 46.208 0.138 63.889z" />
<glyph unicode="&#xe901;" glyph-name="ArrowRight" d="M15.059 449.505c0-24.95 20.226-45.176 45.176-45.176l903.529 0.001c24.949 0 45.176 20.226 45.176 45.176s-20.227 45.176-45.176 45.176l-903.529-0.001c-24.95 0-45.176-20.226-45.176-45.176zM567.339 54.712c17.605-17.679 46.211-17.739 63.89-0.139l364.424 362.859c8.511 8.478 13.3 19.997 13.3 32.011s-4.783 23.535-13.3 32.013l-364.424 362.918c-17.679 17.606-46.282 17.547-63.887-0.133s-17.547-46.283 0.132-63.889l332.278-330.904-332.275-330.845c-17.68-17.607-17.742-46.213-0.138-63.892z" />
<glyph unicode="&#xe902;" glyph-name="Bag" d="M512 809.412c81.781 0 148.079-66.297 148.079-148.079v-105.413h-296.159v105.413c0 81.781 66.298 148.079 148.079 148.079zM705.256 555.921v105.413c0 106.732-86.525 193.255-193.256 193.255s-193.256-86.523-193.256-193.255v-105.413h-105.411c-10.917 0-20.271-7.806-22.224-18.546l-85.334-469.332c-1.198-6.59 0.59-13.372 4.882-18.516 4.292-5.141 10.644-8.114 17.342-8.114h768c6.698 0 13.050 2.973 17.342 8.114 4.292 5.144 6.081 11.927 4.882 18.516l-85.332 469.332c-1.955 10.74-11.309 18.546-22.224 18.546h-105.412zM660.079 510.744v-105.412c0-12.475 10.114-22.588 22.588-22.588s22.588 10.114 22.588 22.588v105.412h86.558l77.119-424.156h-713.867l77.119 424.156h86.559v-105.412c0-12.475 10.114-22.588 22.588-22.588 12.478 0 22.588 10.114 22.588 22.588v105.412h296.159z" />
<glyph unicode="&#xe903;" glyph-name="BagCheck" d="M889.964 110.054l-53.033 597.676c-0.952 11.827-10.872 20.794-22.892 20.794h-111.79c-0.192 99.39-81.078 180.276-180.467 180.276s-180.275-80.886-180.467-180.276h-111.789c-11.828 0-21.748-8.966-22.892-20.794l-53.033-597.676c0-0.763 0-1.336 0-2.099 0-66.578 61.236-120.755 136.399-120.755h463.565c75.164 0 136.399 54.177 136.399 120.755 0 0.763 0 1.336 0 2.099zM521.782 863.016c74.209 0 134.492-60.283 134.682-134.491h-269.363c0.189 74.209 60.472 134.491 134.682 134.491zM753.564 33.175h-463.565c-49.6 0-90.043 33.004-90.615 74.017l51.126 575.547h90.804v-80.312c0-12.59 10.301-22.892 22.894-22.892 12.59 0 22.892 10.301 22.892 22.892v80.312h269.363v-80.312c0-12.59 10.301-22.892 22.894-22.892 12.59 0 22.892 10.301 22.892 22.892v80.312h90.806l51.126-575.736c-0.573-40.824-41.016-73.828-90.616-73.828zM616.975 432.261l-135.063-135.063-55.132 55.132c-8.965 8.965-23.465 8.965-32.43 0-8.968-8.968-8.968-23.465 0-32.43l71.347-71.35c4.388-4.385 10.301-6.676 16.215-6.676s11.635 2.291 16.215 6.676l151.278 151.281c8.968 8.965 8.968 23.465 0 32.43-8.965 8.776-23.465 8.776-32.43 0z" />
<glyph unicode="&#xe904;" glyph-name="Check" d="M887.296 737.941c18.746-18.745 18.746-49.137 0-67.882l-469.334-469.336c-18.745-18.746-49.137-18.746-67.882 0l-213.334 213.336c-18.745 18.745-18.745 49.137 0 67.882s49.137 18.745 67.882 0l179.393-179.394 435.39 435.394c18.746 18.745 49.139 18.745 67.885 0z" />
<glyph unicode="&#xe905;" glyph-name="Chevron" d="M844.627 631.275c-18.746 18.746-49.133 18.746-67.878 0l-264.728-264.725-264.726 264.725c-18.745 18.746-49.137 18.746-67.882 0s-18.745-49.137 0-67.882l298.667-298.669c18.745-18.739 49.137-18.739 67.882 0l298.665 298.669c18.746 18.746 18.746 49.137 0 67.882z" />
<glyph unicode="&#xe906;" glyph-name="Eye" d="M139.036 638.565c76.467 87.805 198.174 178.533 372.958 178.533s296.49-90.727 372.958-178.533c38.241-43.912 65.751-87.673 83.712-120.436 9.006-16.421 15.672-30.191 20.142-39.988 2.237-4.901 3.927-8.817 5.084-11.584 0.584-1.384 1.029-2.481 1.347-3.271l0.384-0.953 0.118-0.3 0.036-0.104c0.010-0.017 0.031-0.074-35.779-13.935 35.809-13.865 35.804-13.88 35.794-13.896l-0.056-0.148-0.118-0.297-0.379-0.952c-0.317-0.788-0.768-1.889-1.347-3.272-1.162-2.765-2.852-6.682-5.084-11.581-4.47-9.795-11.136-23.562-20.142-39.982-17.966-32.753-45.471-76.508-83.712-120.407-76.472-87.788-198.175-178.493-372.958-178.493-174.78 0-296.487 90.706-372.955 178.493-38.242 43.899-65.749 87.654-83.714 120.407-9.004 16.42-15.673 30.188-20.141 39.982-2.236 4.9-3.926 8.817-5.086 11.581-0.58 1.382-1.028 2.483-1.347 3.272l-0.38 0.952-0.118 0.297-0.041 0.108c-0.007 0.015-0.029 0.072 35.781 13.937-35.811 13.861-35.805 13.877-35.798 13.894l0.057 0.145 0.118 0.3 0.38 0.953c0.318 0.79 0.766 1.887 1.347 3.271 1.16 2.767 2.85 6.683 5.086 11.584 4.469 9.797 11.137 23.566 20.141 39.988 17.964 32.762 45.471 76.524 83.713 120.436zM63.993 447.995l-35.798 13.894c-3.452-8.919-3.465-18.84-0.012-27.759l35.81 13.865zM105.849 447.995c3.784-8.197 9.358-19.604 16.814-33.193 16.035-29.24 40.528-68.147 74.287-106.9 67.532-77.527 169.825-152.136 315.044-152.136s247.513 74.609 315.045 152.136c33.756 38.753 58.25 77.66 74.286 106.9 7.455 13.588 13.030 24.996 16.814 33.193-3.784 8.202-9.359 19.612-16.814 33.21-16.036 29.245-40.53 68.158-74.291 106.922-67.533 77.546-169.825 152.17-315.040 152.17s-247.508-74.624-315.042-152.17c-33.759-38.764-58.252-77.678-74.288-106.922-7.456-13.598-13.031-25.009-16.815-33.21zM959.995 447.995l35.794-13.896c3.456 8.919 3.466 18.838 0.015 27.757l-35.809-13.861zM371.71 588.29c37.207 37.207 87.671 58.11 140.29 58.11s103.081-20.903 140.288-58.11c37.207-37.207 58.112-87.671 58.112-140.29s-20.905-103.081-58.112-140.288c-37.207-37.207-87.67-58.112-140.288-58.112s-103.083 20.905-140.29 58.112c-37.207 37.207-58.11 87.67-58.11 140.288s20.903 103.083 58.11 140.29zM512 326.4c32.251 0 63.181 12.81 85.985 35.615s35.615 53.734 35.615 85.985c0 32.25-12.81 63.18-35.615 85.984s-53.734 35.616-85.985 35.616c-32.25 0-63.18-12.811-85.984-35.616s-35.616-53.734-35.616-85.984c0-32.251 12.811-63.181 35.616-85.985s53.734-35.615 85.984-35.615z" />
<glyph unicode="&#xe907;" glyph-name="Headset" d="M825.503 558.359v35.433c0 84.803-30.008 163.602-84.416 222.074-55.759 60.020-132.431 92.934-216.072 92.934h-29.235c-83.64 0-160.312-32.914-216.072-92.934-54.407-58.471-84.417-137.271-84.417-222.074v-35.433c-66.022-4.452-118.491-59.438-118.491-126.623v-55.373c0-69.896 56.922-126.817 126.817-126.817h71.442c12.78 0 23.235 10.455 23.235 23.235v262.733c0 12.777-10.455 23.232-23.235 23.232h-33.3v35.046c0 153.147 109.197 268.541 253.827 268.541h29.235c144.824 0 253.829-115.394 253.829-268.541v-35.046h-33.303c-12.777 0-23.232-10.455-23.232-23.232v-262.541c0-12.777 10.455-23.232 23.232-23.232h32.527c-9.487-121.203-92.933-149.276-131.656-155.666-10.65 32.719-41.434 56.34-77.64 56.34h-58.084c-44.918 0-81.513-36.593-81.513-81.51s36.595-81.705 81.513-81.705h58.276c37.563 0 69.123 25.556 78.607 60.019 18.975 2.711 48.986 9.487 78.802 26.913 42.015 24.589 91.773 74.734 98.355 175.8 66.409 4.065 119.073 59.246 119.073 126.623v55.375c0.192 66.99-52.083 122.168-118.106 126.428zM252.214 296.207h-48.21c-44.338 0-80.35 36.012-80.35 80.348v55.375c0 44.337 36.012 80.348 80.35 80.348h48.21v-216.072zM568.771 33.667h-58.276c-19.361 0-35.044 15.683-35.044 35.044s15.683 35.044 35.044 35.044h58.276c19.364 0 35.046-15.683 35.046-35.044s-15.683-35.044-35.046-35.044zM897.334 376.556c0-44.337-36.012-80.348-80.348-80.348h-48.21v216.072h48.21c44.337 0 80.348-36.012 80.348-80.348v-55.375z" />
<glyph unicode="&#xe908;" glyph-name="Heart" d="M511.971 89.165c-203.78 114.515-318.963 229.718-374.954 331.686-56.717 103.293-52.892 192.944-19.652 258.158 67.418 132.265 259.572 174.655 375.78 27.682l18.822-23.809 18.829 23.808c116.224 146.977 308.387 104.583 375.805-27.681 33.238-65.211 37.062-154.865-19.658-258.158-55.997-101.968-171.184-217.171-374.973-331.686zM511.971 758.316c-141.133 150.205-359.031 96.183-437.371-57.508-41.427-81.271-42.936-187.819 20.342-303.057 62.95-114.643 189.789-237.882 405.419-357.066l11.61-6.416 11.61 6.416c215.635 119.181 342.48 242.422 405.437 357.062 63.28 115.242 61.773 221.786 20.349 303.060-78.342 153.693-296.246 207.713-437.395 57.508z" />
<glyph unicode="&#xe909;" glyph-name="Mail" d="M170.667 757.333c-29.26 0-53.333-24.073-53.333-53.333v-512c0-29.261 24.073-53.333 53.333-53.333h682.667c29.261 0 53.333 24.073 53.333 53.333v512c0 29.26-24.073 53.333-53.333 53.333h-682.667zM53.333 704c0 64.606 52.727 117.333 117.333 117.333h682.667c64.606 0 117.333-52.727 117.333-117.333v-512c0-64.606-52.727-117.333-117.333-117.333h-682.667c-64.606 0-117.333 52.727-117.333 117.333v512zM59.121 722.351c10.135 14.479 30.088 18 44.566 7.865l408.317-285.821 408.316 285.821c14.477 10.135 34.432 6.614 44.565-7.865s6.613-34.431-7.863-44.566l-426.667-298.665c-11.021-7.714-25.685-7.714-36.702 0l-426.668 298.665c-14.479 10.135-18 30.088-7.865 44.566z" />
<glyph unicode="&#xe90a;" glyph-name="MapPin" d="M192 32c0 17.673 14.327 32 32 32h576c17.673 0 32-14.327 32-32s-14.327-32-32-32h-576c-17.673 0-32 14.327-32 32zM398.863 657.137c30.005 30.006 70.701 46.863 113.137 46.863s83.132-16.857 113.135-46.863c30.007-30.006 46.865-70.703 46.865-113.137 0-42.436-16.858-83.132-46.865-113.139-30.003-30.003-70.699-46.861-113.135-46.861s-83.132 16.858-113.137 46.861c-30.006 30.007-46.863 70.703-46.863 113.139 0 42.435 16.857 83.131 46.863 113.137zM512 448c25.459 0 49.877 10.116 67.883 28.117 18.001 18.005 28.117 42.423 28.117 67.883s-10.116 49.879-28.117 67.882c-18.005 18.004-42.423 28.118-67.883 28.118s-49.877-10.114-67.883-28.118c-18.003-18.004-28.117-42.421-28.117-67.882 0-25.459 10.114-49.877 28.117-67.883 18.005-18.001 42.423-28.117 67.883-28.117zM512 832c-76.382 0-149.636-30.343-203.647-84.353s-84.353-127.264-84.353-203.647c0-132.48 73.979-253.107 152.147-343.002 38.694-44.497 77.468-80.375 106.579-105.118 11.511-9.783 21.474-17.796 29.274-23.881 7.799 6.084 17.762 14.097 29.274 23.881 29.111 24.742 67.887 60.621 106.577 105.118 78.17 89.894 152.149 210.522 152.149 343.002 0 76.382-30.345 149.636-84.352 203.647-54.012 54.010-127.266 84.353-203.648 84.353zM512 32c-18.351-26.214-18.359-26.21-18.368-26.202l-0.030 0.017-0.073 0.055-0.239 0.166-0.811 0.576c-0.691 0.495-1.681 1.207-2.94 2.125-2.526 1.843-6.153 4.531-10.722 8.026-9.139 6.985-22.076 17.207-37.542 30.353-30.892 26.257-72.116 64.384-113.423 111.885-81.832 94.106-167.853 229.478-167.853 384.998 0 93.356 37.085 182.889 103.098 248.902s155.545 103.098 248.902 103.098c93.355 0 182.891-37.085 248.9-103.098 66.014-66.013 103.1-155.545 103.1-248.902 0-155.52-86.020-290.893-167.851-384.998-41.31-47.501-82.534-85.628-113.425-111.885-15.467-13.146-28.403-23.369-37.542-30.353-4.57-3.494-8.196-6.182-10.722-8.026-1.259-0.917-2.249-1.63-2.94-2.125l-0.811-0.576-0.239-0.166-0.073-0.055-0.030-0.017c-0.009-0.009-0.017-0.013-18.368 26.202zM512 32l18.351-26.214c-11.017-7.714-25.685-7.714-36.702 0l18.351 26.214z" />
<glyph unicode="&#xe90b;" glyph-name="Package" d="M982.943 718.588c0 3.89-0.865 7.781-2.594 11.455-3.456 7.348-10.158 12.319-17.505 13.832l-440.246 213.531c-7.134 3.458-15.562 3.458-22.693 0l-444.57-215.477c-8.645-4.106-14.264-12.751-14.696-22.477v-0.216c0-0.216 0-0.432 0-0.864v-540.745c0-9.941 5.619-19.018 14.696-23.342l444.57-215.475c0.216 0 0.216 0 0.432-0.216 0.649-0.216 1.294-0.432 1.943-0.865 0.216 0 0.432-0.216 0.865-0.216 0.649-0.216 1.297-0.432 1.946-0.649 0.216 0 0.432-0.216 0.649-0.216 0.649-0.216 1.513-0.216 2.162-0.432 0.216 0 0.432 0 0.649 0 0.865 0 1.946-0.216 2.81-0.216s1.943 0 2.807 0.216c0.216 0 0.432 0 0.649 0 0.649 0 1.513 0.216 2.162 0.432 0.216 0 0.432 0.216 0.649 0.216 0.649 0.216 1.297 0.432 1.946 0.649 0.216 0 0.432 0.216 0.865 0.216 0.649 0.216 1.297 0.432 1.946 0.865 0.216 0 0.216 0 0.432 0.216l445.864 216.124c8.863 4.324 14.697 13.4 14.697 23.342v539.664c-0.432 0.216-0.432 0.432-0.432 0.648zM511.144 905.32l385.567-186.948-141.995-68.943-385.567 186.947 141.995 68.944zM511.144 531.425l-385.568 186.948 184.139 89.26 385.567-186.949-184.138-89.259zM92.509 676.66l392.699-190.405v-482.608l-392.699 190.407v482.606zM537.077 3.647v482.608l184.357 89.475v-126.217c0-14.265 11.671-25.936 25.933-25.936 14.265 0 25.936 11.671 25.936 25.936v151.504l157.773 76.508v-482.606l-393.998-191.272z" />
<glyph unicode="&#xe90c;" glyph-name="Search" d="M469.334 808c-175.26 0-317.334-142.075-317.334-317.334s142.075-317.331 317.334-317.331c175.258 0 317.331 142.074 317.331 317.331 0 175.26-142.074 317.334-317.331 317.334zM104 490.666c0 201.769 163.565 365.334 365.334 365.334 201.766 0 365.331-163.565 365.331-365.334 0-201.766-163.565-365.331-365.331-365.331-201.769 0-365.334 163.565-365.334 365.331zM693.437 266.57c9.373 9.373 24.566 9.373 33.939 0l185.6-185.6c9.373-9.373 9.373-24.566 0-33.939s-24.566-9.373-33.939 0l-185.6 185.6c-9.373 9.373-9.373 24.566 0 33.939z" />
<glyph unicode="&#xe90d;" glyph-name="Star" d="M529.64 197.056l201.76-127.808c25.792-16.324 57.792 7.97 50.144 38.080l-58.272 229.28c-1.646 6.386-1.457 13.108 0.548 19.392s5.74 11.873 10.78 16.128l180.924 150.56c23.748 19.776 11.52 59.232-19.038 61.216l-236.254 15.36c-6.362 0.451-12.463 2.7-17.596 6.484s-9.085 8.949-11.396 14.892l-88.128 221.888c-2.4 6.306-6.659 11.733-12.215 15.563s-12.143 5.88-18.889 5.88c-6.747 0-13.335-2.051-18.89-5.88s-9.814-9.257-12.214-15.563l-88.128-221.888c-2.307-5.949-6.257-11.12-11.39-14.91s-11.238-6.043-17.602-6.497l-236.256-15.36c-30.528-1.952-42.816-41.408-19.040-61.184l180.928-150.592c5.034-4.252 8.767-9.837 10.771-16.114s2.196-12.992 0.557-19.374l-54.016-212.64c-9.184-36.126 29.248-65.284 60.16-45.666l187.52 118.754c5.27 3.35 11.386 5.13 17.632 5.13s12.361-1.78 17.632-5.13h-0.032z" />
<glyph unicode="&#xe90e;" glyph-name="Truck" d="M837.174 286.612c-25.021 0-48.791-9.802-66.724-27.525-17.933-17.93-27.94-41.285-27.94-66.307s9.8-48.374 27.94-66.307c18.14-17.723 41.702-27.523 66.724-27.523 51.295 0 92.997 42.12 92.997 93.829 0 51.712-41.702 93.832-92.997 93.832zM837.174 140.654c-28.774 0-52.961 23.77-52.961 52.127s24.187 52.129 52.961 52.129c28.357 0 51.295-23.355 51.295-52.129s-22.938-52.127-51.295-52.127zM861.361 599.171c-3.753 3.546-8.758 5.422-13.97 5.422h-106.967c-11.466 0-20.851-9.385-20.851-20.851v-170.98c0-11.469 9.385-20.851 20.851-20.851h169.728c11.469 0 20.851 9.382 20.851 20.851v114.473c0 5.837-2.501 11.466-6.879 15.429l-62.764 56.507zM889.3 433.613h-128.026v129.485h77.983l50.043-45.038v-84.447zM327.99 286.612c-25.021 0-48.794-9.802-66.724-27.525-17.933-17.93-27.942-41.285-27.942-66.307s9.8-48.374 27.942-66.307c18.14-17.723 41.702-27.523 66.724-27.523 51.292 0 92.995 42.12 92.995 93.829 0 51.712-41.702 93.832-92.995 93.832zM327.99 140.654c-28.777 0-52.964 23.77-52.964 52.127s24.187 52.129 52.964 52.129c28.357 0 51.292-23.355 51.292-52.129s-22.935-52.127-51.292-52.127zM188.911 260.964h-41.911v55.465c0 11.469-9.383 20.851-20.851 20.851s-20.851-9.382-20.851-20.851v-76.316c0-11.466 9.383-20.851 20.851-20.851h62.762c11.468 0 20.851 9.385 20.851 20.851 0 11.469-9.383 20.851-20.851 20.851zM294.628 374.602c0 11.469-9.385 20.851-20.851 20.851h-252.925c-11.468 0-20.851-9.382-20.851-20.851 0-11.466 9.383-20.851 20.851-20.851h252.925c11.466 0 20.851 9.175 20.851 20.851zM63.179 449.876l252.925-1.459c11.469 0 20.851 9.172 21.059 20.641 0.21 11.676-9.172 21.061-20.641 21.061l-252.925 1.459c-0.209 0-0.209 0-0.209 0-11.468 0-20.851-9.175-20.851-20.644-0.209-11.676 9.175-21.059 20.643-21.059zM105.715 544.54h252.925c11.466 0 20.851 9.382 20.851 20.851s-9.385 20.851-20.851 20.851h-252.925c-11.468 0-20.851-9.382-20.851-20.851s9.383-20.851 20.851-20.851zM1016.284 572.69l-149.294 123.645c-3.753 3.128-8.34 4.797-13.343 4.797h-175.567v75.064c0 11.468-9.382 20.851-20.851 20.851h-531.079c-11.468 0-20.851-9.383-20.851-20.851v-152.632c0-11.466 9.383-20.849 20.851-20.849s20.851 9.382 20.851 20.849v131.781h489.584v-494.382h-170.98c-11.466 0-20.851-9.382-20.851-20.851 0-11.466 9.385-20.851 20.851-20.851h254.595c11.466 0 20.851 9.385 20.851 20.851 0 11.469-9.385 20.851-20.851 20.851h-41.912v398.467h168.061l135.949-112.596-1.459-285.453h-21.686c-11.469 0-20.851-9.382-20.851-20.851s9.382-20.851 20.851-20.851h42.327c11.469 0 20.851 9.175 20.851 20.644l1.669 316.104c-0.207 6.254-2.918 12.301-7.716 16.264z" />
<glyph unicode="&#xe90f;" glyph-name="User" d="M512.010 808c-81.002 0-146.666-65.665-146.666-146.667s65.664-146.668 146.666-146.668c81.002 0 146.669 65.667 146.669 146.668s-65.667 146.667-146.669 146.667zM317.344 661.333c0 107.511 87.156 194.667 194.666 194.667 107.514 0 194.669-87.155 194.669-194.667 0-107.513-87.155-194.668-194.669-194.668-107.51 0-194.666 87.155-194.666 194.668zM219.276 312.403c-18.287-22.285-30.512-49.082-31.575-78.077-1.078-29.398 9.426-58.666 32.404-84.957h0.001c58.417-66.832 153.005-109.37 291.904-109.37 138.902 0 233.446 42.541 291.862 109.37v0c22.989 26.301 33.498 55.568 32.426 84.97-1.062 29.002-13.286 55.798-31.574 78.083-36.237 44.154-99.046 74.246-164.714 74.246h-256c-65.691 0-128.498-30.106-164.734-74.266zM256.246 180.957c-15.785 18.061-21.163 35.661-20.579 51.61 0.6 16.352 7.582 33.386 20.714 49.389 26.601 32.419 75.474 56.714 127.628 56.714h256c52.134 0 101.008-24.288 127.61-56.698 13.13-16 20.112-33.030 20.71-49.382 0.582-15.952-4.8-33.555-20.598-51.629-47.056-53.834-126.848-92.96-255.722-92.96s-208.708 39.126-255.763 92.957z" />
<glyph unicode="&#xe910;" glyph-name="phone-call" d="M633.984 683.478c40.235-7.851 74.24-29.141 98.56-58.624 17.92-21.76 30.549-47.957 36.352-76.501 4.651-23.083 27.179-38.016 50.261-33.365s38.016 27.179 33.365 50.261c-8.533 42.325-27.307 81.365-54.144 113.877-36.437 44.203-87.765 76.331-148.053 88.064-23.125 4.523-45.525-10.581-50.048-33.707s10.581-45.525 33.707-50.048zM637.44 853.59c85.333-9.472 159.701-49.579 213.547-108.544 47.701-52.224 79.275-119.211 87.979-192.811 2.773-23.381 23.979-40.149 47.36-37.376s40.149 23.979 37.376 47.36c-10.795 91.605-50.176 175.189-109.696 240.384-67.328 73.728-160.512 123.989-267.136 135.808-23.424 2.603-44.501-14.293-47.104-37.675s14.293-44.501 37.675-47.104zM981.333 216.747c0.683 30.464-10.069 59.904-28.715 82.901-19.627 24.149-48.171 41.259-82.133 46.080-34.133 4.181-72.32 13.397-110.336 27.563-18.475 6.784-38.101 9.301-57.344 7.424-28.288-2.731-55.765-14.891-77.611-36.48l-30.72-30.72c-75.52 47.659-143.36 113.792-195.541 195.797l30.976 30.976c13.739 14.080 24.021 30.976 30.165 49.323 9.045 26.965 9.131 57.003-1.664 85.803-12.331 32.128-22.101 70.144-27.477 110.72-4.437 30.464-19.456 57.387-41.088 76.971-22.997 20.736-53.589 33.237-86.485 32.896h-127.829c-3.755 0-7.765-0.171-11.648-0.512-35.157-3.2-65.792-20.395-86.741-45.483s-32.341-58.325-29.141-93.824c12.8-131.243 58.24-266.368 137.216-388.352 64.085-102.955 155.648-197.248 268.715-269.056 109.568-72.405 242.517-122.112 387.669-137.856 3.925-0.384 8.149-0.555 12.288-0.555 35.328 0.128 67.328 14.635 90.368 37.845s37.248 55.339 37.12 90.496zM896 216.747v-128c0.043-11.947-4.651-22.613-12.373-30.379s-18.304-12.587-30.123-12.629c-134.357 14.336-254.336 59.349-352.555 124.245-103.595 65.835-185.984 150.912-243.285 242.944-72.405 111.787-113.28 233.856-124.757 351.488-1.024 11.435 2.731 22.443 9.771 30.891s17.195 14.080 28.928 15.147l131.755 0.213c11.563 0.128 21.632-4.011 29.312-10.923 7.253-6.571 12.288-15.616 13.781-25.941 6.059-45.739 17.408-90.325 32.299-129.067 3.456-9.216 3.413-19.072 0.427-28.075-2.091-6.187-5.589-11.989-10.325-16.853l-53.845-53.803c-13.824-13.824-16.171-34.731-6.912-51.243 67.584-118.827 163.797-211.499 272.256-272.128 16.939-9.472 37.632-6.144 50.987 7.083l54.187 54.187c7.083 6.997 16.085 10.965 25.515 11.904 6.485 0.64 13.227-0.213 19.584-2.56 43.605-16.256 88.32-27.136 129.451-32.171 10.283-1.451 19.712-7.083 26.24-15.147 6.272-7.723 9.856-17.579 9.643-29.099z" />
<glyph unicode="&#xea95;" glyph-name="telegram" d="M512 960c-282.8 0-512-229.2-512-512s229.2-512 512-512 512 229.2 512 512-229.2 512-512 512zM763.6 609l-84-395.8c-5.8-28.2-22.8-34.8-46.4-21.8l-128 94.6-61.4-59.8c-7.2-7-12.8-12.8-25.6-12.8-16.6 0-13.8 6.2-19.4 22l-43.6 143.2-126.6 39.4c-27.4 8.4-27.6 27.2 6.2 40.6l493.2 190.4c22.4 10.2 44.2-5.4 35.6-40z" />
<glyph unicode="&#xea98;" glyph-name="vk" d="M928 960h-832c-52.8 0-96-43.2-96-96v-832c0-52.8 43.2-96 96-96h832c52.8 0 96 43.2 96 96v832c0 52.8-43.2 96-96 96zM829.4 243.2l-93.6-1.4c0 0-20.2-4-46.6 14.2-35 24-68 86.6-93.8 78.4-26-8.2-25.2-64.4-25.2-64.4s0.2-12-5.8-18.4c-6.4-7-19.2-8.4-19.2-8.4h-41.8c0 0-92.4-5.6-173.8 79.2-88.8 92.4-167.2 275.8-167.2 275.8s-4.6 12 0.4 17.8c5.6 6.6 20.6 7 20.6 7l100.2 0.6c0 0 9.4-1.6 16.2-6.6 5.6-4 8.6-11.8 8.6-11.8s16.2-41 37.6-78c41.8-72.2 61.4-88 75.6-80.4 20.6 11.2 14.4 102.2 14.4 102.2s0.4 33-10.4 47.6c-8.4 11.4-24.2 14.8-31 15.6-5.6 0.8 3.6 13.8 15.6 19.8 18 8.8 49.8 9.4 87.4 9 29.2-0.2 37.8-2.2 49.2-4.8 34.6-8.4 22.8-40.6 22.8-117.8 0-24.8-4.4-59.6 13.4-71 7.6-5 26.4-0.8 73.4 79 22.2 37.8 39 82.2 39 82.2s3.6 8 9.2 11.4c5.8 3.4 13.6 2.4 13.6 2.4l105.4 0.6c0 0 31.6 3.8 36.8-10.6 5.4-15-11.8-50-54.8-107.4-70.6-94.2-78.6-85.4-19.8-139.8 56-52 67.6-77.4 69.6-80.6 22.8-38.4-26-41.4-26-41.4z" />
<glyph unicode="&#xea9c;" glyph-name="rss2" d="M928 960h-832c-52.8 0-96-43.2-96-96v-832c0-52.8 43.2-96 96-96h832c52.8 0 96 43.2 96 96v832c0 52.8-43.2 96-96 96zM279 128.8c-48 0-87 38.6-87 86.6 0 47.6 39 86.8 87 86.8 48.2 0 87-39.2 87-86.8 0-48-39-86.6-87-86.6zM497.4 128c0 81.8-31.8 158.8-89.4 216.4-57.8 57.8-134.4 89.6-216 89.6v125.2c237.6 0 431.2-193.4 431.2-431.2h-125.8zM719.6 128c0 291-236.6 528-527.4 528v125.2c360 0 653-293.2 653-653.2h-125.6z" />
</font>
</defs>
</svg>
