<svg width="17" height="16" viewBox="0 0 17 16" fill="none" xmlns="http://www.w3.org/2000/svg">
<path fill-rule="evenodd" clip-rule="evenodd" d="M0.25 7.97501C0.25 8.38922 0.585786 8.72501 1 8.72501L16 8.725C16.4142 8.725 16.75 8.38922 16.75 7.975C16.75 7.56079 16.4142 7.225 16 7.225L1 7.22501C0.585786 7.22501 0.25 7.56079 0.25 7.97501Z" fill="black"/>
<path fill-rule="evenodd" clip-rule="evenodd" d="M9.41872 14.5292C9.71099 14.8227 10.1859 14.8237 10.4794 14.5315L16.5294 8.50747C16.6707 8.36673 16.7502 8.17549 16.7502 7.97603C16.7502 7.77657 16.6708 7.58532 16.5294 7.44457L10.4794 1.41957C10.1859 1.12729 9.71105 1.12827 9.41877 1.42177C9.12648 1.71527 9.12746 2.19014 9.42096 2.48243L14.9373 7.97596L9.42101 13.4685C9.12749 13.7608 9.12646 14.2357 9.41872 14.5292Z" fill="black"/>
</svg>
