<svg width="17" height="16" viewBox="0 0 17 16" fill="none" xmlns="http://www.w3.org/2000/svg">
<path fill-rule="evenodd" clip-rule="evenodd" d="M16.75 8.02499C16.75 7.61078 16.4142 7.27499 16 7.27499H1C0.585787 7.27499 0.25 7.61078 0.25 8.02499C0.25 8.43921 0.585787 8.77499 1 8.77499H16C16.4142 8.77499 16.75 8.43921 16.75 8.02499Z" fill="black"/>
<path fill-rule="evenodd" clip-rule="evenodd" d="M7.58128 1.47081C7.28901 1.17729 6.81414 1.17627 6.52062 1.46853L0.470618 7.49253C0.329274 7.63327 0.249813 7.82451 0.249804 8.02397C0.249796 8.22343 0.329241 8.41468 0.470573 8.55543L6.52057 14.5804C6.81407 14.8727 7.28895 14.8717 7.58123 14.5782C7.87352 14.2847 7.87253 13.8099 7.57904 13.5176L2.06271 8.02404L7.57899 2.53147C7.87251 2.23921 7.87354 1.76434 7.58128 1.47081Z" fill="black"/>
</svg>
