<svg width="34" height="34" viewBox="0 0 34 34" fill="none" xmlns="http://www.w3.org/2000/svg">
<path fill-rule="evenodd" clip-rule="evenodd" d="M17 5C14.2846 5 12.0833 7.20127 12.0833 9.91667V13.4167H21.9167V9.91667C21.9167 7.20127 19.7154 5 17 5ZM23.4167 13.4167V9.91667C23.4167 6.37284 20.5438 3.5 17 3.5C13.4562 3.5 10.5833 6.37284 10.5833 9.91667V13.4167H7.08334C6.72087 13.4167 6.41028 13.6759 6.34544 14.0325L3.5121 29.6158C3.47232 29.8346 3.53169 30.0598 3.67419 30.2306C3.81669 30.4013 4.02761 30.5 4.25001 30.5H29.75C29.9724 30.5 30.1833 30.4013 30.3258 30.2306C30.4683 30.0598 30.5277 29.8346 30.4879 29.6158L27.6546 14.0325C27.5897 13.6759 27.2791 13.4167 26.9167 13.4167H23.4167ZM21.9167 14.9167V18.4167C21.9167 18.8309 22.2525 19.1667 22.6667 19.1667C23.0809 19.1667 23.4167 18.8309 23.4167 18.4167V14.9167H26.2907L28.8513 29H5.14867L7.70927 14.9167H10.5833V18.4167C10.5833 18.8309 10.9191 19.1667 11.3333 19.1667C11.7476 19.1667 12.0833 18.8309 12.0833 18.4167V14.9167H21.9167Z" fill="black"/>
</svg>
