<svg width="40" height="40" viewBox="0 0 40 40" fill="none" xmlns="http://www.w3.org/2000/svg">
<path d="M34.7642 33.201L32.6926 9.85427C32.6554 9.39226 32.2679 9.04202 31.7984 9.04202H27.4316C27.4241 5.15959 24.2645 2 20.3821 2C16.4997 2 13.3401 5.15959 13.3326 9.04202H8.96585C8.50383 9.04202 8.11633 9.39226 8.07162 9.85427L6 33.201C6 33.2308 6 33.2532 6 33.283C6 35.8837 8.39205 38 11.3281 38H29.4361C32.3722 38 34.7642 35.8837 34.7642 33.283C34.7642 33.2532 34.7642 33.2308 34.7642 33.201ZM20.3821 3.78845C23.2809 3.78845 25.6357 6.14324 25.6431 9.04202H15.1211C15.1285 6.14324 17.4833 3.78845 20.3821 3.78845ZM29.4361 36.2041H11.3281C9.3906 36.2041 7.81081 34.9149 7.78845 33.3128L9.78555 10.8305H13.3326V13.9677C13.3326 14.4595 13.735 14.8619 14.2269 14.8619C14.7187 14.8619 15.1211 14.4595 15.1211 13.9677V10.8305H25.6431V13.9677C25.6431 14.4595 26.0455 14.8619 26.5374 14.8619C27.0292 14.8619 27.4316 14.4595 27.4316 13.9677V10.8305H30.9787L32.9758 33.3202C32.9534 34.9149 31.3736 36.2041 29.4361 36.2041Z" fill="black"/>
<path d="M24.1006 20.6148L18.8247 25.8907L16.6711 23.7371C16.3209 23.3869 15.7545 23.3869 15.4043 23.7371C15.054 24.0874 15.054 24.6537 15.4043 25.0039L18.1913 27.791C18.3627 27.9623 18.5937 28.0518 18.8247 28.0518C19.0557 28.0518 19.2792 27.9623 19.4581 27.791L25.3674 21.8816C25.7177 21.5314 25.7177 20.965 25.3674 20.6148C25.0172 20.272 24.4508 20.272 24.1006 20.6148Z" fill="black"/>
</svg>
