<svg width="20" height="20" viewBox="0 0 20 20" fill="none" xmlns="http://www.w3.org/2000/svg">
<path fill-rule="evenodd" clip-rule="evenodd" d="M2.71554 6.27802C4.20903 4.56307 6.58612 2.79105 9.99987 2.79105C13.4136 2.79105 15.7907 4.56307 17.2842 6.27802C18.0311 7.13567 18.5684 7.99039 18.9192 8.63028C19.0951 8.95101 19.2253 9.21995 19.3126 9.41129C19.3563 9.50702 19.3893 9.5835 19.4119 9.63754C19.4233 9.66457 19.432 9.686 19.4382 9.70143L19.4457 9.72004L19.448 9.72589L19.4487 9.72793C19.4489 9.72827 19.4493 9.72938 18.7499 10.0001C19.4493 10.2709 19.4492 10.2712 19.449 10.2715L19.4479 10.2744L19.4456 10.2802L19.4382 10.2988C19.432 10.3142 19.4232 10.3357 19.4119 10.3627C19.3892 10.4167 19.3562 10.4932 19.3126 10.5889C19.2253 10.7802 19.0951 11.0491 18.9192 11.3698C18.5683 12.0095 18.0311 12.8641 17.2842 13.7215C15.7906 15.4361 13.4136 17.2077 9.99987 17.2077C6.58619 17.2077 4.20911 15.4361 2.71559 13.7215C1.96868 12.8641 1.43143 12.0095 1.08056 11.3698C0.904692 11.0491 0.774456 10.7802 0.687173 10.5889C0.643503 10.4932 0.610502 10.4167 0.587842 10.3627C0.57651 10.3357 0.567756 10.3142 0.561541 10.2988L0.554114 10.2802L0.551817 10.2744L0.55102 10.2723C0.55089 10.272 0.550458 10.2709 1.24987 10.0001C0.550438 9.72938 0.550559 9.72907 0.55069 9.72873L0.551796 9.72589L0.554093 9.72004L0.561519 9.70143C0.567734 9.686 0.576487 9.66457 0.587819 9.63754C0.610478 9.5835 0.643478 9.50702 0.687147 9.41129C0.774428 9.21995 0.904662 8.95101 1.08053 8.63028C1.43139 7.99039 1.96864 7.13567 2.71554 6.27802ZM1.24987 10.0001L0.55069 9.72873C0.483264 9.90293 0.48302 10.0967 0.550458 10.2709L1.24987 10.0001ZM2.06736 10.0001C2.14127 10.1602 2.25014 10.383 2.39575 10.6484C2.70894 11.2195 3.18732 11.9794 3.84666 12.7363C5.16564 14.2505 7.16356 15.7077 9.99987 15.7077C12.8362 15.7077 14.8341 14.2505 16.1531 12.7363C16.8124 11.9794 17.2908 11.2195 17.604 10.6484C17.7496 10.383 17.8585 10.1602 17.9324 10.0001C17.8585 9.83991 17.7496 9.61705 17.604 9.35146C17.2908 8.78027 16.8124 8.02024 16.153 7.26313C14.834 5.74855 12.8361 4.29105 9.99987 4.29105C7.16363 4.29105 5.16572 5.74855 3.84671 7.26313C3.18736 8.02024 2.70898 8.78027 2.39578 9.35146C2.25015 9.61705 2.14127 9.83991 2.06736 10.0001ZM18.7499 10.0001L19.449 10.2715C19.5165 10.0973 19.5167 9.90358 19.4493 9.72938L18.7499 10.0001Z" fill="black"/>
<path fill-rule="evenodd" clip-rule="evenodd" d="M7.25996 7.25996C7.98666 6.53326 8.97229 6.125 10 6.125C11.0277 6.125 12.0133 6.53326 12.74 7.25996C13.4667 7.98666 13.875 8.97229 13.875 10C13.875 11.0277 13.4667 12.0133 12.74 12.74C12.0133 13.4667 11.0277 13.875 10 13.875C8.97229 13.875 7.98666 13.4667 7.25996 12.74C6.53326 12.0133 6.125 11.0277 6.125 10C6.125 8.97229 6.53326 7.98666 7.25996 7.25996ZM10 12.375C10.6299 12.375 11.234 12.1248 11.6794 11.6794C12.1248 11.234 12.375 10.6299 12.375 10C12.375 9.37011 12.1248 8.76602 11.6794 8.32062C11.234 7.87522 10.6299 7.625 10 7.625C9.37011 7.625 8.76602 7.87522 8.32062 8.32062C7.87522 8.76602 7.625 9.37011 7.625 10C7.625 10.6299 7.87522 11.234 8.32062 11.6794C8.76602 12.1248 9.37011 12.375 10 12.375Z" fill="black"/>
</svg>
