<svg width="40" height="40" viewBox="0 0 40 40" fill="none" xmlns="http://www.w3.org/2000/svg">
<path d="M32.2462 15.6891V14.305C32.2462 10.9924 31.074 7.91429 28.9487 5.63025C26.7706 3.28571 23.7756 2 20.5084 2H19.3664C16.0992 2 13.1042 3.28571 10.9261 5.63025C8.80084 7.91429 7.62857 10.9924 7.62857 14.305V15.6891C5.04958 15.863 3 18.0109 3 20.6353V22.7983C3 25.5286 5.22353 27.7521 7.95378 27.7521H10.7445C11.2437 27.7521 11.6521 27.3437 11.6521 26.8445V16.5815C11.6521 16.0824 11.2437 15.674 10.7445 15.674H9.4437V14.305C9.4437 8.32269 13.7092 3.81513 19.3588 3.81513H20.5008C26.158 3.81513 30.416 8.32269 30.416 14.305V15.674H29.1151C28.616 15.674 28.2076 16.0824 28.2076 16.5815V26.837C28.2076 27.3361 28.616 27.7445 29.1151 27.7445H30.3857C30.0151 32.479 26.7555 33.5756 25.2429 33.8252C24.8269 32.5471 23.6244 31.6244 22.2101 31.6244H19.9412C18.1866 31.6244 16.7571 33.0538 16.7571 34.8084C16.7571 36.563 18.1866 38 19.9412 38H22.2176C23.6849 38 24.9177 37.0017 25.2882 35.6555C26.0294 35.5496 27.2017 35.2849 28.3664 34.6042C30.0076 33.6437 31.9513 31.6849 32.2084 27.737C34.8025 27.5782 36.8597 25.4227 36.8597 22.7908V20.6277C36.8672 18.0109 34.8252 15.8555 32.2462 15.6891ZM9.8521 25.9294H7.96891C6.23697 25.9294 4.83025 24.5227 4.83025 22.7908V20.6277C4.83025 18.8958 6.23697 17.4891 7.96891 17.4891H9.8521V25.9294ZM22.2176 36.1849H19.9412C19.1849 36.1849 18.5723 35.5723 18.5723 34.816C18.5723 34.0597 19.1849 33.4471 19.9412 33.4471H22.2176C22.974 33.4471 23.5866 34.0597 23.5866 34.816C23.5866 35.5723 22.974 36.1849 22.2176 36.1849ZM35.0521 22.7908C35.0521 24.5227 33.6454 25.9294 31.9135 25.9294H30.0303V17.4891H31.9135C33.6454 17.4891 35.0521 18.8958 35.0521 20.6277V22.7908Z" fill="black"/>
</svg>
