<svg width="32" height="32" viewBox="0 0 32 32" fill="none" xmlns="http://www.w3.org/2000/svg">
<path fill-rule="evenodd" clip-rule="evenodd" d="M15.9991 27.2136C9.63096 23.635 6.03151 20.0349 4.28178 16.8484C2.50937 13.6205 2.62891 10.8189 3.66767 8.78096C5.77448 4.64768 11.7793 3.32298 15.4108 7.9159L15.999 8.65994L16.5874 7.91594C20.2194 3.32292 26.2245 4.64773 28.3313 8.78096C29.37 10.8188 29.4895 13.6205 27.717 16.8484C25.9671 20.0349 22.3675 23.635 15.9991 27.2136ZM15.9991 6.30263C11.5887 1.60871 4.77938 3.29691 2.33127 8.09977C1.03669 10.6395 0.98951 13.9691 2.96696 17.5703C4.93414 21.1529 8.89786 25.0041 15.6363 28.7286L15.9991 28.9291L16.3619 28.7286C23.1005 25.0042 27.0644 21.1529 29.0318 17.5704C31.0093 13.9691 30.9622 10.6396 29.6677 8.09977C27.2195 3.29685 20.41 1.60875 15.9991 6.30263Z" fill="black"/>
</svg>
