<svg width="32" height="32" viewBox="0 0 32 32" fill="none" xmlns="http://www.w3.org/2000/svg">
<path fill-rule="evenodd" clip-rule="evenodd" d="M14.6667 4.75C9.18984 4.75 4.75 9.18984 4.75 14.6667C4.75 20.1435 9.18984 24.5833 14.6667 24.5833C20.1435 24.5833 24.5833 20.1435 24.5833 14.6667C24.5833 9.18984 20.1435 4.75 14.6667 4.75ZM3.25 14.6667C3.25 8.36142 8.36142 3.25 14.6667 3.25C20.9719 3.25 26.0833 8.36142 26.0833 14.6667C26.0833 20.9719 20.9719 26.0833 14.6667 26.0833C8.36142 26.0833 3.25 20.9719 3.25 14.6667Z" fill="black"/>
<path fill-rule="evenodd" clip-rule="evenodd" d="M21.6699 21.6697C21.9628 21.3768 22.4376 21.3768 22.7305 21.6697L28.5305 27.4697C28.8234 27.7626 28.8234 28.2374 28.5305 28.5303C28.2376 28.8232 27.7628 28.8232 27.4699 28.5303L21.6699 22.7303C21.377 22.4374 21.377 21.9626 21.6699 21.6697Z" fill="black"/>
</svg>
