<svg width="32" height="32" viewBox="0 0 32 32" fill="none" xmlns="http://www.w3.org/2000/svg">
<path fill-rule="evenodd" clip-rule="evenodd" d="M16.0003 4.75C13.469 4.75 11.417 6.80203 11.417 9.33333C11.417 11.8646 13.469 13.9167 16.0003 13.9167C18.5316 13.9167 20.5837 11.8646 20.5837 9.33333C20.5837 6.80203 18.5316 4.75 16.0003 4.75ZM9.91699 9.33333C9.91699 5.9736 12.6406 3.25 16.0003 3.25C19.3601 3.25 22.0837 5.9736 22.0837 9.33333C22.0837 12.6931 19.3601 15.4167 16.0003 15.4167C12.6406 15.4167 9.91699 12.6931 9.91699 9.33333Z" fill="black"/>
<path fill-rule="evenodd" clip-rule="evenodd" d="M6.85236 20.2374C7.98474 18.8574 9.94747 17.9166 12.0003 17.9166H20.0003C22.0524 17.9166 24.0152 18.857 25.1476 20.2368C25.7191 20.9332 26.1011 21.7706 26.1343 22.6769C26.1678 23.5957 25.8394 24.5103 25.121 25.3322L25.121 25.3322C23.2955 27.4206 20.341 28.75 16.0003 28.75C11.6597 28.75 8.70384 27.4207 6.8783 25.3322L6.87826 25.3322C6.1602 24.5106 5.83195 23.596 5.86563 22.6773C5.89885 21.7712 6.28089 20.9338 6.85236 20.2374ZM8.0077 24.3451C7.51443 23.7807 7.34635 23.2307 7.36462 22.7323C7.38336 22.2213 7.60157 21.689 8.01193 21.1889C8.84322 20.1758 10.3705 19.4166 12.0003 19.4166H20.0003C21.6295 19.4166 23.1568 20.1756 23.9881 21.1884C24.3984 21.6884 24.6166 22.2206 24.6353 22.7316C24.6535 23.2301 24.4853 23.7802 23.9916 24.345C22.5211 26.0273 20.0276 27.25 16.0003 27.25C11.973 27.25 9.47817 26.0273 8.0077 24.3451Z" fill="black"/>
</svg>
